<?xml version="1.0" standalone="no"?>
<!DOCTYPE svg PUBLIC "-//W3C//DTD SVG 20010904//EN"
 "http://www.w3.org/TR/2001/REC-SVG-20010904/DTD/svg10.dtd">
<svg version="1.0" xmlns="http://www.w3.org/2000/svg"
 width="763.000000pt" height="1080.000000pt" viewBox="0 0 763.000000 1080.000000"
 preserveAspectRatio="xMidYMid meet">
<metadata>
Created by potrace 1.16, written by Peter Selinger 2001-2019
</metadata>
<g transform="translate(0.000000,1080.000000) scale(0.100000,-0.100000)"
fill="#000000" stroke="none">
<path d="M1684 8886 c-46 -20 -103 -74 -125 -119 -48 -92 -32 -200 40 -280 50
-55 101 -77 184 -77 72 0 121 15 149 46 16 19 15 22 -24 71 l-41 51 -35 -15
c-96 -40 -186 39 -148 130 24 59 89 82 145 52 29 -14 29 -14 65 41 20 30 34
60 30 65 -25 42 -175 63 -240 35z"/>
<path d="M4520 8887 c-19 -6 -56 -32 -82 -58 -103 -103 -100 -264 8 -359 53
-46 93 -60 175 -60 59 0 80 5 116 25 23 14 43 30 43 34 0 5 -18 31 -41 59
l-41 50 -35 -15 c-80 -33 -153 11 -153 91 1 83 76 129 150 91 l29 -15 36 55
c19 31 35 59 35 64 0 5 -22 18 -49 30 -55 23 -133 26 -191 8z"/>
<path d="M1980 8656 l0 -236 70 0 70 0 0 35 0 35 60 0 59 0 56 -75 c30 -41 57
-75 58 -75 2 0 28 18 57 40 51 38 57 40 125 40 69 0 71 1 82 30 11 30 12 30
86 30 74 0 75 0 86 -30 10 -30 11 -30 85 -30 l75 0 -79 231 c-44 128 -80 234
-80 236 0 2 -39 2 -87 1 l-88 -3 -77 -220 c-42 -121 -77 -222 -77 -224 -1 -3
-22 23 -47 57 l-46 62 21 50 c28 64 27 105 -5 168 -19 39 -38 59 -72 80 -44
25 -55 27 -189 30 l-143 4 0 -236z"/>
<path d="M2980 8654 l0 -236 123 4 c100 3 129 8 162 25 101 54 150 158 125
265 -10 41 -24 63 -64 103 -62 62 -103 75 -245 75 l-101 0 0 -236z m249 60
c51 -64 11 -144 -70 -144 l-39 0 0 85 0 85 44 0 c36 0 48 -5 65 -26z"/>
<path d="M3440 8655 l0 -235 145 0 145 0 0 75 0 75 -75 0 -75 0 0 160 0 160
-70 0 -70 0 0 -235z"/>
<path d="M3770 8655 l0 -235 170 0 170 0 0 65 0 65 -95 0 c-95 0 -95 0 -95 25
0 25 1 25 90 25 l90 0 0 60 0 60 -90 0 c-83 0 -90 1 -90 20 0 19 7 20 95 20
l95 0 0 65 0 65 -170 0 -170 0 0 -235z"/>
<path d="M4810 8656 l0 -236 70 0 70 0 0 35 0 35 60 0 60 0 56 -75 c31 -41 58
-75 61 -75 2 0 28 19 59 41 l54 42 -25 33 c-14 19 -37 50 -52 70 l-26 35 19
32 c13 23 19 51 19 99 0 58 -4 72 -30 109 -50 71 -87 83 -252 87 l-143 4 0
-236z"/>
<path d="M5320 8655 l0 -235 165 0 165 0 0 65 0 65 -95 0 c-95 0 -95 0 -95 25
0 25 0 25 95 25 l96 0 -3 58 -3 57 -92 3 c-85 2 -93 4 -93 22 0 18 7 20 95 20
l95 0 0 65 0 65 -165 0 -165 0 0 -235z"/>
<path d="M5700 8655 l0 -235 170 0 170 0 0 65 0 64 -97 3 c-93 3 -98 4 -101
26 -3 21 -1 22 92 22 l96 0 0 60 0 60 -95 0 c-88 0 -95 1 -95 20 0 18 8 20 98
22 l97 3 0 60 0 60 -167 3 -168 2 0 -235z"/>
<path d="M6090 8655 l0 -237 123 4 c141 5 181 20 240 89 95 110 62 269 -71
351 -32 19 -54 23 -164 26 l-128 4 0 -237z m247 63 c17 -16 23 -32 23 -64 0
-54 -33 -84 -91 -84 l-39 0 0 85 0 85 42 0 c29 0 49 -7 65 -22z"/>
<path d="M2792 8314 c-68 -35 -107 -138 -79 -206 20 -48 48 -65 132 -78 77
-12 91 -20 81 -45 -5 -15 -17 -16 -95 -10 l-89 7 -11 -63 c-7 -42 -7 -67 -1
-73 6 -6 64 -10 129 -11 138 0 160 9 199 85 27 54 28 105 2 147 -24 39 -58 58
-133 72 -67 12 -77 17 -77 36 0 20 14 22 98 13 42 -4 77 -6 78 -5 7 7 27 128
22 132 -3 4 -55 8 -114 11 -90 4 -115 2 -142 -12z"/>
<path d="M3267 8316 c-160 -59 -217 -253 -114 -388 78 -101 249 -128 342 -53
l29 22 -43 52 c-32 38 -48 50 -60 45 -32 -14 -92 -16 -123 -3 -36 15 -62 68
-53 109 3 15 19 40 35 55 24 23 35 26 72 23 24 -3 50 -8 60 -12 12 -6 25 5 52
47 20 30 36 57 36 60 0 4 -19 16 -42 28 -52 27 -141 34 -191 15z"/>
<path d="M4175 8317 c-152 -61 -214 -212 -144 -348 41 -80 133 -139 219 -139
59 0 129 30 173 75 119 118 94 307 -50 392 -51 30 -150 40 -198 20z m146 -165
c70 -62 24 -172 -72 -172 -57 0 -99 42 -99 100 0 91 102 133 171 72z"/>
<path d="M4700 8321 c-153 -50 -223 -212 -152 -352 78 -155 277 -184 399 -57
44 45 63 96 63 168 0 100 -46 177 -134 222 -43 22 -136 32 -176 19z m126 -156
c51 -35 55 -127 7 -165 -38 -29 -106 -27 -138 4 -68 68 -27 176 67 176 24 0
53 -7 64 -15z"/>
<path d="M3550 8080 l0 -230 70 0 70 0 0 80 0 80 65 0 65 0 0 -80 0 -80 75 0
75 0 0 230 0 230 -75 0 -75 0 0 -80 0 -81 -62 3 -63 3 -3 78 -3 77 -69 0 -70
0 0 -230z"/>
<path d="M5050 8080 l0 -230 145 0 145 0 0 70 0 69 -72 3 -73 3 -3 158 -3 157
-69 0 -70 0 0 -230z"/>
<path d="M3780 7644 c-367 -32 -597 -76 -900 -173 -127 -41 -417 -154 -432
-169 -4 -4 8 -37 26 -72 59 -112 89 -214 90 -310 1 -53 -4 -98 -13 -120 -53
-129 -188 -221 -401 -272 -52 -12 -98 -26 -101 -31 -3 -4 -16 -85 -28 -180
-138 -1091 68 -2016 618 -2786 292 -408 702 -793 1178 -1108 l116 -76 66 33
c95 46 239 132 371 220 816 546 1311 1332 1470 2335 63 402 72 930 22 1409
l-17 160 -65 19 c-117 33 -197 67 -258 110 -177 123 -215 302 -124 584 14 45
24 84 21 86 -2 2 -58 28 -124 57 -307 136 -626 225 -948 265 -118 15 -476 27
-567 19z m560 -109 c280 -37 547 -112 843 -238 94 -40 117 -53 112 -66 -18
-45 -46 -185 -52 -253 -20 -255 124 -438 412 -524 33 -10 61 -19 63 -20 8 -5
33 -305 42 -514 29 -632 -59 -1231 -252 -1720 -159 -405 -367 -720 -682 -1035
-191 -191 -331 -306 -536 -440 -123 -81 -334 -205 -349 -205 -4 0 -61 36 -126
81 -510 348 -904 746 -1187 1199 -436 699 -599 1549 -477 2499 11 85 20 155
22 156 1 1 40 11 87 23 196 51 343 156 389 277 43 112 27 258 -45 414 -19 41
-32 76 -30 78 8 8 208 87 316 124 237 82 519 147 735 168 61 6 124 13 140 15
68 10 458 -3 575 -19z"/>
<path d="M3940 6336 l0 -1096 845 0 c701 0 845 2 845 13 0 8 5 85 11 173 12
173 2 424 -29 734 l-17 165 -85 30 c-146 53 -234 111 -299 198 -96 127 -126
244 -118 463 l6 151 -97 46 c-259 121 -586 196 -922 213 l-140 7 0 -1097z
m972 193 c95 -38 218 -89 274 -112 l100 -41 -4 -109 c-3 -76 -1 -115 8 -132 7
-13 10 -30 7 -38 -3 -8 2 -42 10 -76 9 -34 14 -64 11 -66 -10 -10 -94 -13
-105 -4 -8 7 -9 19 -2 42 19 62 37 322 22 315 -4 -2 -47 -23 -95 -48 l-88 -44
0 -128 0 -127 -35 -29 c-78 -64 -188 -102 -295 -102 -103 0 -181 26 -282 93
l-48 32 0 130 0 130 -118 60 c-159 82 -159 86 0 150 68 27 191 78 273 112 83
34 160 62 172 63 12 0 100 -32 195 -71z m-738 -604 c-13 -36 -24 -69 -24 -74
0 -4 35 -6 78 -3 183 10 364 -68 450 -195 18 -27 26 -32 33 -22 4 8 12 14 16
14 4 1 38 15 74 33 165 80 403 85 537 12 20 -11 28 -18 17 -16 -56 14 -203 36
-242 36 -60 0 -166 -23 -298 -65 l-110 -34 -50 24 c-71 34 -160 55 -276 64
-94 7 -237 1 -304 -13 l-30 -7 25 15 c121 70 396 58 547 -23 65 -36 50 -12
-22 34 -66 43 -132 64 -229 75 -73 9 -221 1 -299 -16 -27 -6 -25 -1 49 110 42
64 78 116 79 116 2 0 -8 -29 -21 -65z m1086 -99 c25 -9 59 -28 75 -42 l30 -25
-29 6 c-15 3 -74 10 -130 15 -189 16 -329 -16 -438 -102 -53 -41 -47 -21 9 36
115 114 331 165 483 112z"/>
<path d="M4473 6453 c-128 -53 -231 -98 -228 -102 2 -3 110 -60 239 -126 l236
-120 236 120 c129 66 237 123 239 126 4 6 -464 200 -480 198 -5 0 -115 -44
-242 -96z"/>
<path d="M4440 6086 l0 -105 59 -35 c143 -87 313 -84 454 8 l47 31 0 103 0
103 -141 -72 -140 -71 -140 72 -139 71 0 -105z"/>
<path d="M3127 6485 c-3 -11 -13 -74 -22 -140 -9 -66 -18 -121 -20 -123 -1 -1
-29 58 -60 133 -32 74 -60 134 -61 132 -2 -1 4 -54 12 -117 23 -190 26 -188
-67 -69 -45 57 -87 110 -94 118 -8 7 11 -48 41 -124 30 -76 54 -139 52 -140
-2 -2 -54 35 -116 81 -61 46 -115 84 -118 84 -3 0 35 -53 85 -117 49 -65 88
-119 87 -120 -1 -2 -43 13 -92 33 -152 62 -184 74 -184 70 0 -1 51 -43 114
-92 63 -48 113 -90 111 -92 -2 -2 -62 4 -134 13 -72 9 -136 15 -141 13 -5 -2
49 -27 121 -57 94 -40 126 -57 113 -62 -11 -3 -75 -15 -144 -25 -69 -10 -118
-20 -110 -21 44 -8 276 -30 280 -27 2 3 7 33 11 68 11 114 76 208 181 263 49
26 62 28 163 28 103 0 113 -2 163 -29 110 -61 176 -170 177 -293 0 -44 4 -73
11 -73 13 0 287 60 291 64 2 1 -54 11 -124 21 -71 10 -136 21 -145 24 -11 4
29 25 113 61 72 30 123 56 115 58 -9 2 -70 -4 -137 -12 -66 -9 -126 -16 -132
-16 -6 0 32 33 83 73 52 39 105 82 119 95 l26 22 -50 -19 c-27 -10 -90 -35
-139 -55 -50 -20 -91 -36 -92 -36 -2 0 37 53 85 118 49 64 87 118 86 120 -2 2
-54 -35 -116 -82 -63 -46 -115 -83 -116 -82 -2 2 21 63 86 224 11 28 19 52 17
52 -1 0 -43 -52 -92 -115 -49 -64 -90 -111 -92 -105 -2 5 4 67 13 136 9 70 14
128 12 130 -3 4 -27 -47 -105 -226 l-16 -35 -21 145 c-12 86 -24 137 -28 125z"/>
<path d="M3067 6159 c-132 -32 -237 -155 -237 -278 l0 -38 203 -7 c111 -4 246
-13 301 -20 l98 -12 -4 77 c-6 95 -42 166 -112 220 -70 53 -172 77 -249 58z"/>
<path d="M2720 5802 c-48 -5 -75 -14 -105 -36 -33 -23 -35 -27 -15 -23 14 3
86 11 160 18 144 13 605 6 715 -10 33 -5 83 -11 110 -15 l50 -6 -60 16 c-138
35 -328 55 -560 59 -126 2 -259 0 -295 -3z"/>
<path d="M2290 5153 c0 -5 9 -68 20 -141 115 -785 570 -1514 1320 -2115 91
-73 260 -198 298 -221 9 -6 12 245 12 1238 l0 1246 -825 0 c-454 0 -825 -3
-825 -7z m1008 -300 c17 -33 46 -85 64 -115 l33 -56 19 42 19 41 7 -55 c4 -30
21 -86 38 -125 40 -92 52 -139 52 -201 0 -101 -44 -179 -124 -219 -94 -47
-207 -27 -273 48 -67 77 -71 189 -10 323 24 53 37 97 37 125 1 41 2 43 16 24
30 -40 37 -94 20 -164 -19 -78 -20 -102 -5 -134 13 -28 58 -57 89 -57 58 0
110 62 110 132 0 65 -16 104 -119 302 -35 66 -41 87 -41 138 0 34 6 79 12 102
l13 41 7 -66 c4 -43 16 -86 36 -126z m-60 -117 c78 -84 114 -159 120 -254 4
-66 2 -75 -18 -97 -27 -29 -65 -32 -98 -9 -40 28 -45 59 -21 131 26 80 20 139
-25 229 -18 35 -29 64 -25 64 3 0 34 -29 67 -64z m67 -616 c39 0 95 7 124 16
29 8 55 13 58 10 10 -9 -18 -130 -34 -147 -19 -22 -133 -43 -191 -36 -112 15
-133 28 -147 97 l-7 35 24 -27 c36 -41 82 -59 141 -56 44 3 52 6 52 22 0 15
-11 23 -48 32 -53 13 -152 60 -167 79 -7 8 14 6 57 -6 37 -11 99 -19 138 -19z
m85 -182 c0 -6 -7 -36 -15 -67 -17 -66 -35 -251 -35 -364 0 -71 -2 -78 -22
-86 -25 -9 -49 -4 -60 13 -4 6 -8 74 -8 151 0 127 -16 248 -44 340 -4 11 6 -5
20 -35 15 -31 31 -88 36 -130 6 -41 13 -82 15 -90 9 -28 22 22 22 90 1 80 -11
126 -43 159 l-25 26 80 2 c48 1 79 -3 79 -9z"/>
<path d="M4742 5068 c-7 -7 -12 -43 -12 -93 0 -191 -58 -297 -263 -481 l-67
-61 -35 47 c-54 73 -111 94 -180 66 -37 -16 -60 -51 -70 -111 -4 -22 -13 -50
-21 -62 -20 -32 -19 -33 32 -31 66 3 74 -11 74 -142 0 -183 33 -237 195 -319
l90 -46 48 -95 c26 -52 64 -112 85 -133 36 -37 36 -37 106 -33 47 3 72 9 77
19 6 9 18 13 35 9 16 -3 29 1 35 9 5 8 20 13 37 11 62 -7 85 68 35 114 -14 13
-71 48 -127 77 -123 64 -199 133 -216 196 -6 23 -10 45 -7 47 2 2 29 -10 61
-27 46 -25 64 -30 94 -25 20 4 60 10 87 14 57 9 75 17 75 36 0 7 18 20 41 29
24 9 43 24 46 36 3 11 13 23 23 26 22 7 40 47 33 73 -3 14 3 25 21 37 53 35
84 123 54 153 -9 9 -4 20 24 50 48 48 71 103 59 135 -6 14 -15 27 -21 29 -8 2
-8 11 -1 31 25 64 5 149 -36 155 -18 3 -20 8 -16 41 6 47 -13 146 -33 166 -32
31 -49 5 -84 -130 -21 -80 -68 -174 -115 -230 l-25 -30 -1 25 c-1 14 0 30 1
35 16 61 20 123 9 145 -7 14 -11 39 -10 56 2 32 -19 64 -43 64 -8 0 -16 17
-19 40 -9 70 -45 108 -75 78z m45 -117 c-3 -25 -8 -58 -12 -73 -11 -41 20 -37
41 5 11 20 19 27 22 18 2 -7 -6 -31 -18 -53 -17 -30 -19 -43 -11 -51 9 -9 16
-8 31 1 25 16 26 1 3 -39 -15 -24 -15 -31 -4 -38 11 -7 10 -14 -3 -39 -20 -39
-20 -53 -1 -46 24 10 17 -14 -16 -56 -23 -29 -67 -57 -173 -111 -77 -40 -155
-83 -172 -96 -36 -27 -59 -74 -49 -100 5 -15 9 -13 20 13 20 47 76 87 197 138
138 59 200 99 276 181 69 73 117 164 134 250 21 111 29 138 39 128 17 -17 23
-119 9 -167 -7 -25 -9 -53 -6 -62 6 -16 8 -15 22 4 18 26 39 28 48 6 14 -37 4
-75 -35 -133 -23 -34 -39 -64 -36 -67 3 -3 19 2 36 10 39 21 41 20 41 -9 0
-29 -44 -82 -111 -131 -27 -19 -49 -40 -49 -45 0 -5 18 -9 40 -9 32 0 40 -4
40 -18 0 -28 -27 -59 -90 -102 -75 -51 -82 -63 -37 -59 37 3 61 -7 36 -15 -8
-3 -40 -7 -71 -11 -65 -7 -75 -21 -23 -31 19 -3 35 -9 35 -13 0 -3 -18 -14
-40 -23 -24 -10 -40 -23 -40 -33 0 -14 -10 -16 -81 -9 -61 5 -80 4 -75 -5 4
-6 14 -11 23 -11 9 0 14 -3 11 -6 -14 -14 -86 12 -144 52 -38 26 -64 38 -64
30 0 -7 8 -20 18 -29 11 -10 18 -33 20 -61 4 -106 59 -166 233 -256 116 -61
159 -96 144 -121 -5 -7 -22 -9 -46 -6 -30 4 -41 1 -48 -11 -9 -15 -12 -15 -40
5 l-30 23 -3 -28 c-3 -31 -29 -40 -51 -18 -13 14 -16 13 -29 -6 -14 -21 -16
-22 -41 -5 -36 23 -82 93 -132 199 -24 52 -45 86 -49 80 -5 -8 -28 -1 -74 22
-129 65 -153 105 -160 271 -6 142 -27 185 -92 185 -16 0 -20 4 -16 16 3 9 6
29 6 46 0 44 48 88 97 88 43 0 71 -20 123 -88 17 -23 45 -49 61 -58 33 -16 37
-10 12 19 -17 18 -16 20 18 50 19 18 68 58 108 90 129 104 191 232 195 407 4
120 4 121 22 86 11 -19 14 -43 11 -75z"/>
<path d="M1507 5630 c-37 -29 -84 -133 -98 -214 -19 -116 9 -266 62 -328 l19
-23 34 37 c54 62 81 166 81 318 0 114 -2 130 -25 175 -14 27 -30 51 -36 52 -6
2 -22 -6 -37 -17z"/>
<path d="M6426 5631 c-45 -50 -61 -235 -31 -374 15 -73 59 -164 88 -181 14 -9
21 -6 37 14 73 96 81 331 15 460 -17 35 -73 100 -85 100 -4 0 -15 -9 -24 -19z"/>
<path d="M1135 5229 c-25 -76 5 -216 66 -310 37 -58 121 -137 156 -145 94 -24
30 250 -94 404 -55 67 -116 91 -128 51z"/>
<path d="M6758 5213 c-105 -96 -194 -318 -167 -417 l10 -36 38 20 c59 30 101
69 143 134 65 101 95 239 68 310 -14 37 -42 33 -92 -11z"/>
<path d="M1791 5118 c-48 -13 -169 -138 -205 -210 -15 -31 -30 -75 -33 -97 -5
-38 -4 -41 19 -41 67 0 192 100 239 191 24 48 40 119 32 147 -6 24 -4 24 -52
10z"/>
<path d="M6146 5122 c-13 -12 -5 -74 16 -129 39 -107 202 -243 263 -219 54 20
-78 253 -180 316 -39 24 -91 41 -99 32z"/>
<path d="M1153 4694 c-12 -32 7 -129 38 -193 59 -120 216 -250 275 -227 45 17
-20 195 -113 311 -78 97 -182 154 -200 109z"/>
<path d="M1805 4701 c-38 -16 -116 -112 -151 -186 -38 -78 -57 -186 -36 -199
30 -18 138 70 189 154 34 55 56 145 48 196 -6 44 -14 49 -50 35z"/>
<path d="M6134 4684 c-20 -81 31 -220 112 -301 53 -53 112 -82 125 -61 42 66
-83 322 -182 373 -39 21 -48 19 -55 -11z"/>
<path d="M6749 4690 c-102 -54 -229 -248 -237 -362 l-5 -61 37 6 c80 13 195
117 251 227 27 53 44 134 37 179 -5 37 -28 40 -83 11z"/>
<path d="M1870 4274 c-79 -71 -156 -285 -134 -371 5 -21 16 -39 25 -41 24 -4
111 79 142 135 31 58 57 151 57 205 0 44 -24 108 -39 108 -6 0 -29 -16 -51
-36z"/>
<path d="M6042 4285 c-33 -72 -3 -225 64 -322 34 -49 97 -103 122 -103 31 0
27 151 -7 240 -31 83 -82 161 -120 187 -43 29 -45 29 -59 -2z"/>
<path d="M1254 4155 c-4 -8 -3 -34 0 -57 23 -141 195 -306 338 -326 l41 -5 -5
46 c-14 124 -205 324 -336 352 -25 5 -33 3 -38 -10z"/>
<path d="M6664 4156 c-124 -39 -303 -241 -307 -348 -2 -32 -1 -33 38 -32 130
3 313 178 339 325 7 40 0 69 -18 68 -6 0 -29 -6 -52 -13z"/>
<path d="M2008 3843 c-75 -81 -122 -288 -85 -376 14 -33 19 -37 36 -28 30 17
72 71 100 131 32 71 41 206 18 263 -19 44 -34 46 -69 10z"/>
<path d="M5913 3838 c-26 -48 -23 -175 6 -250 20 -52 101 -158 121 -158 17 0
32 64 32 133 -1 93 -39 218 -82 270 -38 45 -54 47 -77 5z"/>
<path d="M1448 3654 c-14 -14 -8 -40 23 -102 54 -110 190 -204 312 -218 55 -7
57 -6 57 17 0 68 -125 207 -239 268 -59 31 -139 50 -153 35z"/>
<path d="M6435 3643 c-66 -27 -137 -77 -195 -136 -61 -64 -89 -109 -90 -149 0
-33 17 -36 100 -14 144 38 280 169 292 281 3 28 1 30 -32 32 -19 1 -53 -5 -75
-14z"/>
<path d="M2206 3520 c-74 -89 -95 -360 -35 -459 l20 -34 30 29 c65 62 109 214
95 326 -7 58 -52 159 -72 165 -6 2 -23 -10 -38 -27z"/>
<path d="M5721 3523 c-37 -46 -54 -127 -48 -222 6 -102 25 -159 73 -224 34
-47 36 -48 55 -31 43 39 63 199 39 325 -13 66 -55 156 -80 169 -15 8 -23 5
-39 -17z"/>
<path d="M2445 3196 c-30 -46 -39 -142 -22 -240 17 -98 67 -210 104 -234 20
-13 23 -11 42 27 48 94 44 259 -9 368 -28 56 -69 103 -91 103 -5 0 -16 -11
-24 -24z"/>
<path d="M5471 3185 c-40 -46 -56 -78 -75 -152 -21 -82 -20 -158 4 -236 26
-85 39 -95 75 -60 80 80 124 334 75 441 -10 23 -26 42 -33 42 -8 0 -29 -16
-46 -35z"/>
<path d="M1713 3155 c-17 -45 74 -153 176 -208 100 -55 261 -68 253 -21 -16
93 -224 233 -359 242 -53 4 -64 2 -70 -13z"/>
<path d="M6139 3160 c-65 -19 -178 -89 -231 -141 -52 -52 -79 -101 -64 -116 3
-4 34 -6 69 -5 104 2 214 50 293 128 39 39 79 118 69 134 -7 12 -98 12 -136 0z"/>
<path d="M2041 2717 c-37 -19 -36 -32 8 -80 45 -48 119 -88 200 -107 64 -15
185 -9 223 11 l28 14 -19 30 c-57 92 -348 180 -440 132z"/>
<path d="M5740 2714 c-113 -29 -250 -114 -250 -154 0 -5 20 -16 45 -25 34 -13
64 -16 127 -13 133 8 250 65 300 146 l20 32 -36 15 c-44 19 -134 18 -206 -1z"/>
<path d="M1190 2358 c-1 -37 42 -888 46 -915 l5 -33 102 -1 c56 0 215 -4 352
-8 138 -5 251 -7 252 -7 1 1 -36 141 -82 311 -46 171 -81 313 -77 317 4 3 139
55 301 114 162 60 290 109 285 111 -5 1 -220 25 -479 53 -259 28 -508 55 -555
60 -115 13 -150 13 -150 -2z m335 -353 c44 -43 30 -83 -55 -163 l-45 -41 63
-1 c55 0 62 -2 62 -20 0 -19 -7 -20 -89 -20 -122 0 -126 16 -26 111 59 56 73
82 55 104 -21 26 -58 18 -75 -15 -16 -30 -44 -41 -46 -17 -3 28 3 43 27 65 35
31 97 30 129 -3z m190 1 c45 -45 48 -176 5 -221 -28 -29 -83 -34 -117 -10 -50
35 -55 184 -8 231 33 33 87 32 120 0z"/>
<path d="M1619 1948 c-12 -46 -6 -123 12 -144 33 -40 69 7 69 89 0 70 -12 97
-45 97 -20 0 -26 -7 -36 -42z"/>
<path d="M6300 2340 c-135 -16 -378 -42 -540 -60 -162 -17 -296 -32 -298 -34
-1 -2 68 -30 155 -62 335 -123 438 -163 436 -171 -1 -4 -36 -136 -79 -293 -42
-157 -79 -295 -82 -308 -5 -23 -4 -23 64 -18 38 3 198 9 357 12 278 6 287 7
287 26 0 25 38 764 44 866 l4 72 -51 -1 c-29 -1 -162 -14 -297 -29z m-49 -375
c19 -10 32 -26 35 -44 l6 -29 34 20 c19 11 43 31 53 44 41 52 51 29 51 -121 0
-86 -3 -115 -15 -125 -27 -22 -35 0 -35 95 l0 95 -32 -20 c-18 -10 -37 -16
-42 -11 -7 5 -37 -18 -75 -56 l-65 -63 62 0 c55 0 62 -2 62 -20 0 -19 -7 -20
-90 -20 -88 0 -90 1 -90 24 0 16 20 42 65 84 64 59 77 86 53 110 -22 22 -57
14 -73 -18 -18 -34 -45 -40 -45 -9 0 66 73 99 141 64z"/>
<path d="M3665 2294 c-532 -27 -974 -93 -1445 -215 -141 -36 -351 -97 -358
-104 -2 -2 114 -425 193 -701 l15 -52 96 25 c225 57 565 119 829 152 847 106
1678 65 2535 -125 113 -25 209 -46 214 -47 7 -2 237 743 232 750 -1 1 -91 27
-199 57 -458 128 -937 213 -1382 246 -150 11 -615 20 -730 14z m910 -508 c-7
-68 -23 -108 -32 -80 -2 6 -18 8 -35 6 -36 -5 -58 16 -58 58 0 50 37 75 83 55
13 -6 17 -2 17 17 0 29 10 42 23 29 5 -5 6 -42 2 -85z m603 -48 c2 -5 10 -4
17 2 22 18 26 -4 16 -71 -12 -73 -24 -89 -64 -89 -29 0 -67 24 -67 42 0 13 20
9 37 -7 19 -19 47 -16 51 6 2 12 -3 15 -21 12 -52 -10 -78 66 -36 108 20 20
59 19 67 -3z"/>
</g>
</svg>
